<?xml version="1.0" encoding="UTF-8"?>
<svg version="1.1" xmlns="http://www.w3.org/2000/svg" width="1080" height="1080">
<path d="M0 0 C2.18306045 0.01838831 4.36569782 0.0205082 6.54882812 0.02026367 C17.91838241 0.06012579 17.91838241 0.06012579 22.92382812 1.20581055 C24.56793561 1.36996074 26.2139747 1.5157903 27.86132812 1.64331055 C31.83157577 2.02393901 35.18076732 2.7722979 38.92382812 4.20581055 C43.16894437 5.68722072 47.35003749 7.07412089 51.73632812 8.08081055 C58.76230663 9.74895031 65.51950549 12.9121589 71.92382812 16.20581055 C71.92382812 16.86581055 71.92382812 17.52581055 71.92382812 18.20581055 C72.65085937 18.32053711 73.37789062 18.43526367 74.12695312 18.5534668 C77.00460104 19.22465004 79.10985228 20.19354568 81.67382812 21.64331055 C82.45242188 22.07514648 83.23101563 22.50698242 84.03320312 22.9519043 C85.92382812 24.20581055 85.92382812 24.20581055 86.92382812 26.20581055 C88.9405264 27.33931588 88.9405264 27.33931588 90.92382812 28.20581055 C90.92382812 28.86581055 90.92382812 29.52581055 90.92382812 30.20581055 C91.72820312 30.32956055 92.53257812 30.45331055 93.36132812 30.58081055 C94.20695312 30.78706055 95.05257813 30.99331055 95.92382812 31.20581055 C96.25382812 31.86581055 96.58382813 32.52581055 96.92382812 33.20581055 C97.91382813 33.53581055 98.90382813 33.86581055 99.92382812 34.20581055 C101.61132813 35.64331055 101.61132813 35.64331055 102.92382812 37.20581055 C102.92382812 37.86581055 102.92382812 38.52581055 102.92382812 39.20581055 C103.91382813 39.53581055 104.90382813 39.86581055 105.92382812 40.20581055 C105.92382812 40.86581055 105.92382812 41.52581055 105.92382812 42.20581055 C106.58382813 42.20581055 107.24382812 42.20581055 107.92382812 42.20581055 C107.92382812 42.86581055 107.92382812 43.52581055 107.92382812 44.20581055 C108.58382813 44.20581055 109.24382812 44.20581055 109.92382812 44.20581055 C109.92382812 44.86581055 109.92382812 45.52581055 109.92382812 46.20581055 C110.91382813 46.53581055 111.90382813 46.86581055 112.92382812 47.20581055 C112.92382812 47.86581055 112.92382812 48.52581055 112.92382812 49.20581055 C113.58382813 49.20581055 114.24382812 49.20581055 114.92382812 49.20581055 C114.92382812 49.86581055 114.92382812 50.52581055 114.92382812 51.20581055 C115.58382813 51.20581055 116.24382812 51.20581055 116.92382812 51.20581055 C117.25382812 52.52581055 117.58382813 53.84581055 117.92382812 55.20581055 C118.58382813 55.20581055 119.24382812 55.20581055 119.92382812 55.20581055 C123.22235557 57.93259324 124.80042547 61.51028767 126.74023438 65.24487305 C127.77496951 67.35415325 127.77496951 67.35415325 129.92382812 68.20581055 C130.98850073 70.06609447 131.97758921 71.97007995 132.92382812 73.89331055 C133.43945312 74.92842773 133.95507812 75.96354492 134.48632812 77.0300293 C135.85227918 80.04774181 136.93843202 83.04591055 137.92382812 86.20581055 C138.58382813 86.20581055 139.24382812 86.20581055 139.92382812 86.20581055 C140.17777344 86.90706055 140.43171875 87.60831055 140.69335938 88.33081055 C141.20962891 89.75393555 141.20962891 89.75393555 141.73632812 91.20581055 C142.28353516 92.71594727 142.28353516 92.71594727 142.84179688 94.2565918 C143.71876857 96.6468937 144.6254081 99.02083141 145.54882812 101.39331055 C146.99585968 105.2598411 148.02140292 109.18112589 148.92382812 113.20581055 C149.17261719 114.27186523 149.42140625 115.33791992 149.67773438 116.4362793 C150.07798828 118.20938477 150.07798828 118.20938477 150.48632812 120.01831055 C150.85951172 121.66766602 150.85951172 121.66766602 151.24023438 123.3503418 C152.86772626 132.529396 153.11682165 141.71364723 153.11132812 151.01831055 C153.11197266 152.15381348 153.11261719 153.28931641 153.11328125 154.45922852 C153.06244987 162.5379521 152.53959583 170.27123697 150.92382812 178.20581055 C151.66503906 178.07303711 152.40625 177.94026367 153.16992188 177.8034668 C164.92388986 175.83248318 177.05478933 174.35623462 188.93164062 175.95581055 C191.09581238 176.27620548 191.09581238 176.27620548 193.98632812 176.14331055 C197.30440661 176.21390796 200.20677139 176.86383917 203.42382812 177.63549805 C206.14105361 178.25536511 208.8644489 178.73555677 211.61132812 179.20581055 C215.541807 179.90904463 219.1698074 180.81845506 222.92382812 182.20581055 C223.51679687 182.3862793 224.10976563 182.56674805 224.72070312 182.75268555 C232.72416368 185.21991775 240.29259774 188.78814295 247.92382812 192.20581055 C247.92382812 192.86581055 247.92382812 193.52581055 247.92382812 194.20581055 C248.64570312 194.32956055 249.36757813 194.45331055 250.11132812 194.58081055 C254.70417205 195.60144253 257.67593484 196.81670451 260.92382812 200.20581055 C263.02372465 201.38155766 263.02372465 201.38155766 264.92382812 202.20581055 C264.92382812 202.86581055 264.92382812 203.52581055 264.92382812 204.20581055 C265.91382813 204.20581055 266.90382813 204.20581055 267.92382812 204.20581055 C267.92382812 204.86581055 267.92382812 205.52581055 267.92382812 206.20581055 C268.69726562 206.54612305 268.69726562 206.54612305 269.48632812 206.89331055 C272.81929817 208.68798673 276.07086484 210.7054607 278.92382812 213.20581055 C278.92382812 213.86581055 278.92382812 214.52581055 278.92382812 215.20581055 C279.91382813 215.53581055 280.90382813 215.86581055 281.92382812 216.20581055 C281.92382812 216.86581055 281.92382812 217.52581055 281.92382812 218.20581055 C282.58382812 218.20581055 283.24382813 218.20581055 283.92382812 218.20581055 C283.92382812 218.86581055 283.92382812 219.52581055 283.92382812 220.20581055 C284.91382813 220.53581055 285.90382813 220.86581055 286.92382812 221.20581055 C286.92382812 221.86581055 286.92382812 222.52581055 286.92382812 223.20581055 C287.58382812 223.20581055 288.24382813 223.20581055 288.92382812 223.20581055 C288.92382812 223.86581055 288.92382812 224.52581055 288.92382812 225.20581055 C289.58382812 225.20581055 290.24382813 225.20581055 290.92382812 225.20581055 C296.2041217 230.97373017 300.50314142 237.77174178 304.92382812 244.20581055 C305.36210938 244.8194043 305.80039062 245.43299805 306.25195312 246.06518555 C308.11341971 248.71318731 308.92382812 249.88117076 308.92382812 253.20581055 C309.58382812 253.20581055 310.24382813 253.20581055 310.92382812 253.20581055 C310.92382812 254.52581055 310.92382812 255.84581055 310.92382812 257.20581055 C311.58382812 257.20581055 312.24382813 257.20581055 312.92382812 257.20581055 C313.24996094 257.99084961 313.57609375 258.77588867 313.91210938 259.5847168 C314.56759766 261.1605957 314.56759766 261.1605957 315.23632812 262.76831055 C315.66558594 263.80084961 316.09484375 264.83338867 316.53710938 265.8972168 C317.47742431 268.14072876 318.44319341 270.37370969 319.43164062 272.59643555 C333.91133613 307.62062048 331.717655 349.37809457 317.92382812 384.20581055 C313.98852413 393.2299733 309.24733614 401.92804808 303.92382812 410.20581055 C303.323125 411.14682617 302.72242188 412.0878418 302.10351562 413.05737305 C299.68725697 416.54752443 297.0724438 419.74785389 294.29882812 422.95581055 C293.50714233 423.87269653 293.50714233 423.87269653 292.69946289 424.80810547 C280.56759047 438.72810166 267.05726269 450.20831819 250.92382812 459.20581055 C250.14007812 459.70081055 249.35632813 460.19581055 248.54882812 460.70581055 C238.66229258 466.35525943 227.70379293 469.96242238 216.65039062 472.49487305 C213.91020984 473.1452516 213.91020984 473.1452516 211.34960938 474.2565918 C208.96074484 475.19136488 207.02967612 475.55523148 204.48632812 475.76831055 C202.00400977 475.98590196 199.59586722 476.26284723 197.13867188 476.69018555 C182.7472988 478.99840091 164.88246266 479.85868873 150.92382812 475.20581055 C151.25382812 476.19581055 151.58382813 477.18581055 151.92382812 478.20581055 C157.06283914 515.58006794 149.95367454 555.20396167 127.92382812 586.20581055 C127.29347656 587.1803418 126.663125 588.15487305 126.01367188 589.15893555 C123.6378309 592.62277847 121.04328489 595.78157901 118.29882812 598.95581055 C117.7710376 599.56706787 117.24324707 600.1783252 116.69946289 600.80810547 C98.20238845 622.03147454 75.8152285 637.65755082 48.92382812 646.20581055 C48.18648437 646.45331055 47.44914062 646.70081055 46.68945312 646.95581055 C33.72371445 651.1326928 20.49671525 652.81819835 6.92382812 653.20581055 C6.22612305 653.22772461 5.52841797 653.24963867 4.80957031 653.2722168 C-18.2633458 653.90291154 -38.58668019 648.54724998 -59.63867188 639.51831055 C-61.43788086 638.75164062 -61.43788086 638.75164062 -63.2734375 637.96948242 C-66.20903472 636.71805253 -69.14322123 635.46342762 -72.07617188 634.20581055 C-72.07617188 633.54581055 -72.07617188 632.88581055 -72.07617188 632.20581055 C-73.21054687 631.91706055 -74.34492188 631.62831055 -75.51367188 631.33081055 C-76.68929687 630.95956055 -77.86492187 630.58831055 -79.07617188 630.20581055 C-79.40617188 629.54581055 -79.73617187 628.88581055 -80.07617188 628.20581055 C-82.09287015 627.07230521 -82.09287015 627.07230521 -84.07617188 626.20581055 C-84.07617188 625.54581055 -84.07617188 624.88581055 -84.07617188 624.20581055 C-84.83929688 624.10268555 -85.60242188 623.99956055 -86.38867188 623.89331055 C-89.35529629 623.13440663 -90.09886194 622.44103047 -92.07617188 620.20581055 C-92.79804688 619.69018555 -93.51992188 619.17456055 -94.26367188 618.64331055 C-95.16085937 617.93174805 -95.16085937 617.93174805 -96.07617188 617.20581055 C-96.07617188 616.54581055 -96.07617188 615.88581055 -96.07617188 615.20581055 C-97.06617188 614.87581055 -98.05617188 614.54581055 -99.07617188 614.20581055 C-99.07617188 613.54581055 -99.07617188 612.88581055 -99.07617188 612.20581055 C-99.73617187 612.20581055 -100.39617187 612.20581055 -101.07617188 612.20581055 C-101.07617188 611.54581055 -101.07617188 610.88581055 -101.07617188 610.20581055 C-101.73617187 610.20581055 -102.39617187 610.20581055 -103.07617188 610.20581055 C-103.07617188 609.54581055 -103.07617188 608.88581055 -103.07617188 608.20581055 C-104.06617188 607.87581055 -105.05617188 607.54581055 -106.07617188 607.20581055 C-106.07617188 606.54581055 -106.07617188 605.88581055 -106.07617188 605.20581055 C-106.73617187 605.20581055 -107.39617187 605.20581055 -108.07617188 605.20581055 C-108.07617188 604.54581055 -108.07617188 603.88581055 -108.07617188 603.20581055 C-108.73617187 603.20581055 -109.39617187 603.20581055 -110.07617188 603.20581055 C-111.42895303 601.21891323 -112.76185493 599.21835837 -114.07617188 597.20581055 C-114.73617187 596.87581055 -115.39617187 596.54581055 -116.07617188 596.20581055 C-116.07617188 595.54581055 -116.07617188 594.88581055 -116.07617188 594.20581055 C-116.73617187 594.20581055 -117.39617187 594.20581055 -118.07617188 594.20581055 C-118.07617188 592.88581055 -118.07617188 591.56581055 -118.07617188 590.20581055 C-118.73617187 590.20581055 -119.39617187 590.20581055 -120.07617188 590.20581055 C-121.52811552 588.32528113 -122.88981792 586.37444206 -124.20117188 584.39331055 C-124.925625 583.31436523 -125.65007812 582.23541992 -126.39648438 581.1237793 C-128.07617188 578.20581055 -128.07617188 578.20581055 -128.07617188 575.20581055 C-128.73617187 575.20581055 -129.39617187 575.20581055 -130.07617188 575.20581055 C-130.346875 574.50584961 -130.61757813 573.80588867 -130.89648438 573.0847168 C-132.14193001 570.04533457 -133.5339358 567.10628857 -134.95117188 564.14331055 C-139.54979579 554.20759756 -142.81964224 543.91812706 -145.07617188 533.20581055 C-145.24898682 532.40481934 -145.42180176 531.60382812 -145.59985352 530.77856445 C-147.21037203 522.4524337 -147.35094233 514.33979845 -147.28198242 505.89624023 C-147.26364525 503.57744358 -147.26147414 501.25904752 -147.26171875 498.94018555 C-147.24304828 491.30733173 -147.02234391 483.79032559 -146.07617188 476.20581055 C-149.08870234 476.13408363 -151.89256071 476.17499469 -154.86914062 476.67456055 C-165.91291704 478.50398027 -178.03343398 479.36634622 -189.07617188 477.20581055 C-190.53372589 477.05238381 -191.99216688 476.9072634 -193.45117188 476.76831055 C-197.07414035 476.37991862 -200.49440052 475.71610388 -204.0078125 474.75927734 C-205.88297356 474.25750797 -207.77016556 473.80124717 -209.65820312 473.3503418 C-214.74979108 472.07965393 -219.71896616 470.47267379 -224.70117188 468.83081055 C-226.07402344 468.39381836 -226.07402344 468.39381836 -227.47460938 467.94799805 C-232.62719331 466.25032588 -236.69273026 464.38776666 -241.07617188 461.20581055 C-243.11071749 460.16527305 -243.11071749 460.16527305 -244.95117188 459.45581055 C-245.98242188 459.04331055 -247.01367188 458.63081055 -248.07617188 458.20581055 C-248.07617188 457.54581055 -248.07617188 456.88581055 -248.07617188 456.20581055 C-249.06617188 456.53581055 -250.05617188 456.86581055 -251.07617188 457.20581055 C-251.75679687 456.49424805 -251.75679687 456.49424805 -252.45117188 455.76831055 C-254.00875391 454.11553247 -254.00875391 454.11553247 -256.07617188 453.20581055 C-256.07617188 452.54581055 -256.07617188 451.88581055 -256.07617188 451.20581055 C-256.88054687 451.08206055 -257.68492187 450.95831055 -258.51367188 450.83081055 C-259.78210938 450.52143555 -259.78210938 450.52143555 -261.07617188 450.20581055 C-261.40617187 449.54581055 -261.73617187 448.88581055 -262.07617188 448.20581055 C-263.06617188 447.87581055 -264.05617188 447.54581055 -265.07617188 447.20581055 C-266.76328611 445.55984544 -268.43073407 443.89343906 -270.07617188 442.20581055 C-270.73617187 441.87581055 -271.39617187 441.54581055 -272.07617188 441.20581055 C-272.07617188 440.54581055 -272.07617188 439.88581055 -272.07617188 439.20581055 C-273.06617188 438.87581055 -274.05617188 438.54581055 -275.07617188 438.20581055 C-275.07617188 437.54581055 -275.07617188 436.88581055 -275.07617188 436.20581055 C-275.73617187 436.20581055 -276.39617187 436.20581055 -277.07617188 436.20581055 C-277.07617188 435.54581055 -277.07617188 434.88581055 -277.07617188 434.20581055 C-278.06617188 433.87581055 -279.05617188 433.54581055 -280.07617188 433.20581055 C-280.07617188 432.54581055 -280.07617188 431.88581055 -280.07617188 431.20581055 C-280.73617187 431.20581055 -281.39617187 431.20581055 -282.07617188 431.20581055 C-282.07617188 430.54581055 -282.07617188 429.88581055 -282.07617188 429.20581055 C-283.06617188 428.87581055 -284.05617188 428.54581055 -285.07617188 428.20581055 C-285.07617188 427.54581055 -285.07617188 426.88581055 -285.07617188 426.20581055 C-285.73617187 426.20581055 -286.39617187 426.20581055 -287.07617188 426.20581055 C-288.10229136 424.55509659 -289.09925331 422.88611049 -290.07617188 421.20581055 C-290.61242187 420.69018555 -291.14867187 420.17456055 -291.70117188 419.64331055 C-293.07617188 418.20581055 -293.07617188 418.20581055 -293.57617188 416.08081055 C-293.74117187 415.46206055 -293.90617187 414.84331055 -294.07617188 414.20581055 C-295.06617188 413.87581055 -296.05617188 413.54581055 -297.07617188 413.20581055 C-297.07617188 412.21581055 -297.07617188 411.22581055 -297.07617188 410.20581055 C-297.73617187 410.20581055 -298.39617187 410.20581055 -299.07617188 410.20581055 C-299.57117188 408.22581055 -299.57117188 408.22581055 -300.07617188 406.20581055 C-300.73617187 406.20581055 -301.39617187 406.20581055 -302.07617188 406.20581055 C-302.07617188 404.88581055 -302.07617188 403.56581055 -302.07617188 402.20581055 C-302.73617187 402.20581055 -303.39617187 402.20581055 -304.07617188 402.20581055 C-305.06617188 399.23581055 -306.05617188 396.26581055 -307.07617188 393.20581055 C-307.73617187 393.20581055 -308.39617187 393.20581055 -309.07617188 393.20581055 C-325.9481326 354.82901464 -328.55528782 311.44558295 -313.49682617 272.07592773 C-304.87484148 250.37000779 -291.77299336 232.72951686 -275.38867188 216.33081055 C-274.27008789 215.19385742 -274.27008789 215.19385742 -273.12890625 214.03393555 C-272.04512695 212.94725586 -272.04512695 212.94725586 -270.93945312 211.83862305 C-269.96939331 210.8623999 -269.96939331 210.8623999 -268.97973633 209.86645508 C-267.08331408 208.21204131 -265.34446343 207.2624339 -263.07617188 206.20581055 C-261.38441525 204.9044593 -259.71912383 203.56825851 -258.07617188 202.20581055 C-255.16653293 199.79293922 -252.52385864 197.75901084 -249.07617188 196.20581055 C-243.76792577 193.62099281 -243.76792577 193.62099281 -238.63867188 190.70581055 C-223.89983642 182.07819955 -204.57272051 177.46584425 -187.70117188 176.3894043 C-184.9399041 176.23812381 -184.9399041 176.23812381 -181.70117188 175.64331055 C-173.81705466 174.69177916 -165.88630301 174.78481542 -158.07617188 176.20581055 C-155.79366455 176.43849333 -153.51113396 176.6383663 -151.22460938 176.8269043 C-148.87372156 177.24151542 -147.1800458 178.10486946 -145.07617188 179.20581055 C-145.21764648 178.60679932 -145.35912109 178.00778809 -145.50488281 177.390625 C-147.17886383 169.45539601 -147.38309227 161.68651772 -147.33691406 153.61865234 C-147.32623887 151.40718857 -147.3368421 149.19654594 -147.34960938 146.98510742 C-147.36384542 134.46149298 -146.1658367 122.39535222 -142.38867188 110.39331055 C-142.00001953 109.13381592 -142.00001953 109.13381592 -141.60351562 107.84887695 C-137.72409642 95.58945043 -133.05831557 84.03734725 -126.07617188 73.20581055 C-125.40219971 71.98063437 -124.7349076 70.75174575 -124.07617188 69.51831055 C-122.14194414 66.31474586 -120.06182433 63.72071109 -117.54101562 60.97924805 C-115.98577978 59.20364648 -115.98577978 59.20364648 -114.79492188 56.921875 C-112.85741665 53.86012136 -110.66960515 51.5401731 -108.11132812 48.9753418 C-107.63674667 48.49884689 -107.16216522 48.02235199 -106.67320251 47.53141785 C-105.67464605 46.53150765 -104.6735885 45.5340895 -103.67016602 44.5390625 C-102.13971427 43.01934563 -100.62025786 41.48921912 -99.1015625 39.95776367 C-98.12629184 38.98381429 -97.15040114 38.01048531 -96.17382812 37.0378418 C-95.29218994 36.15845947 -94.41055176 35.27907715 -93.50219727 34.37304688 C-91.35892919 32.45840556 -89.66531794 31.35819108 -87.07617188 30.20581055 C-84.5352298 28.22263624 -82.07827336 26.15502725 -79.61132812 24.08081055 C-77.13329328 22.2480575 -74.95865186 21.24215369 -72.07617188 20.20581055 C-70.40197749 19.21846514 -68.73565335 18.2176895 -67.07617188 17.20581055 C-58.51495243 12.61198548 -49.35448207 9.05789812 -40.07617188 6.20581055 C-38.94179688 5.85518555 -37.80742187 5.50456055 -36.63867188 5.14331055 C-33.07461614 4.20540114 -29.51567204 3.45534278 -25.89648438 2.76831055 C-23.66751819 2.32375219 -21.46233191 1.7600991 -19.27148438 1.1550293 C-12.92167651 -0.26350276 -6.46936449 -0.05645298 0 0 Z M-17.07617188 76.20581055 C-18.22472656 76.53258789 -18.22472656 76.53258789 -19.39648438 76.8659668 C-24.57080681 78.47088376 -29.32105195 80.62445973 -34.07617188 83.20581055 C-34.7078125 83.54870117 -35.33945312 83.8915918 -35.99023438 84.24487305 C-45.76671788 89.69474258 -55.41745873 97.45699126 -61.07617188 107.20581055 C-61.54796875 107.93799805 -62.01976562 108.67018555 -62.50585938 109.42456055 C-73.88510354 127.3853135 -77.28806445 149.12890047 -72.72070312 169.9284668 C-71.72088372 173.46116202 -70.48381865 176.8146615 -69.07617188 180.20581055 C-68.55410156 179.9634668 -68.03203125 179.72112305 -67.49414062 179.47143555 C-58.47578752 175.36500506 -49.4703419 172.13169856 -39.80273438 169.91674805 C-37.06012743 169.26534317 -37.06012743 169.26534317 -34.48632812 168.15112305 C-32.16263197 167.23972196 -30.36051226 166.89131452 -27.88867188 166.70581055 C-24.71381419 166.43028794 -21.73581127 165.92418611 -18.63867188 165.1862793 C-12.18598221 163.8691606 -5.82603584 163.95094971 0.73632812 164.01831055 C1.91775391 164.01895508 3.09917969 164.01959961 4.31640625 164.02026367 C15.0055063 164.07297704 25.60557397 164.23275426 35.92382812 167.20581055 C37.25575904 167.54470421 38.58913927 167.87794694 39.92382812 168.20581055 C40.55329346 168.36509033 41.18275879 168.52437012 41.83129883 168.68847656 C43.68856504 169.14764668 45.55571288 169.56642794 47.42382812 169.97924805 C53.11381177 171.40174396 58.48874162 173.654055 63.92382812 175.83081055 C64.98472656 176.25104492 66.045625 176.6712793 67.13867188 177.10424805 C69.73553772 178.13363631 72.33048737 179.16758087 74.92382812 180.20581055 C75.57460108 178.16571299 76.21922637 176.12365386 76.86132812 174.08081055 C77.22097656 172.94385742 77.580625 171.8069043 77.95117188 170.63549805 C83.37711348 151.50306139 79.96930506 130.79857124 70.61132812 113.51831055 C69.41424026 111.39166582 68.18330925 109.29661172 66.92382812 107.20581055 C66.26382813 107.20581055 65.60382813 107.20581055 64.92382812 107.20581055 C64.52164063 106.37049805 64.52164063 106.37049805 64.11132812 105.51831055 C62.81483317 102.99355721 61.4990649 100.5686657 59.92382812 98.20581055 C59.26382813 98.20581055 58.60382813 98.20581055 57.92382812 98.20581055 C57.92382812 97.54581055 57.92382812 96.88581055 57.92382812 96.20581055 C57.26382813 96.20581055 56.60382813 96.20581055 55.92382812 96.20581055 C55.92382812 95.54581055 55.92382812 94.88581055 55.92382812 94.20581055 C55.28445313 94.10268555 54.64507813 93.99956055 53.98632812 93.89331055 C53.30570313 93.66643555 52.62507813 93.43956055 51.92382812 93.20581055 C51.42882812 91.72081055 51.42882812 91.72081055 50.92382812 90.20581055 C50.26382813 90.20581055 49.60382813 90.20581055 48.92382812 90.20581055 C48.92382812 89.54581055 48.92382812 88.88581055 48.92382812 88.20581055 C47.27382813 87.87581055 45.62382813 87.54581055 43.92382812 87.20581055 C43.92382812 86.54581055 43.92382812 85.88581055 43.92382812 85.20581055 C40.72085568 83.71483361 37.51061447 82.24019316 34.29882812 80.76831055 C33.39519531 80.34743164 32.4915625 79.92655273 31.56054688 79.49291992 C26.99865098 77.41176304 22.9628007 75.6959024 17.92382812 75.20581055 C16.6528125 75.02405273 15.38179687 74.84229492 14.07226562 74.6550293 C3.81533459 73.41493953 -7.10420406 73.34907243 -17.07617188 76.20581055 Z M-70.07617188 273.20581055 C-84.19670968 290.8735838 -88.76122012 314.11458379 -87.07617188 336.20581055 C-85.78574437 345.99905492 -82.55952248 355.02129258 -79.07617188 364.20581055 C-78.74617187 365.19581055 -78.41617188 366.18581055 -78.07617188 367.20581055 C-77.41617188 367.20581055 -76.75617188 367.20581055 -76.07617188 367.20581055 C-75.82867187 368.07206055 -75.58117187 368.93831055 -75.32617188 369.83081055 C-72.46484345 377.55639729 -66.60743192 384.20471374 -61.07617188 390.20581055 C-60.41617187 390.20581055 -59.75617188 390.20581055 -59.07617188 390.20581055 C-59.07617188 390.86581055 -59.07617188 391.52581055 -59.07617188 392.20581055 C-57.62843444 393.78946492 -57.62843444 393.78946492 -55.76367188 395.33081055 C-55.14878906 395.86963867 -54.53390625 396.4084668 -53.90039062 396.96362305 C-52.0307214 398.48723177 -52.0307214 398.48723177 -49.07617188 398.20581055 C-48.74617188 399.19581055 -48.41617188 400.18581055 -48.07617188 401.20581055 C-47.08617187 401.53581055 -46.09617187 401.86581055 -45.07617188 402.20581055 C-44.74617188 402.86581055 -44.41617188 403.52581055 -44.07617188 404.20581055 C-32.1105848 410.29883981 -18.60711057 415.80097234 -5.07617188 416.20581055 C-4.36380371 416.23320313 -3.65143555 416.2605957 -2.91748047 416.28881836 C5.89406858 416.59540338 14.37643174 416.59050734 22.92382812 414.20581055 C24.62152344 413.76881836 24.62152344 413.76881836 26.35351562 413.32299805 C32.94745131 411.55253328 39.00412083 409.61534717 44.92382812 406.20581055 C46.07882812 405.58706055 47.23382812 404.96831055 48.42382812 404.33081055 C58.43272125 398.50745455 69.08133453 390.25489954 74.92382812 380.20581055 C75.83755041 379.07841782 76.75462649 377.95374025 77.67382812 376.83081055 C90.61231628 359.67604889 94.73419501 337.01841823 92.23632812 316.01831055 C90.92417618 307.10103307 89.29557806 297.17988243 84.92382812 289.20581055 C83.92382812 287.20581055 82.92382812 285.20581055 81.92382812 283.20581055 C81.26382813 283.20581055 80.60382813 283.20581055 79.92382812 283.20581055 C79.92382812 281.88581055 79.92382812 280.56581055 79.92382812 279.20581055 C79.26382813 279.20581055 78.60382813 279.20581055 77.92382812 279.20581055 C77.59382812 277.88581055 77.26382813 276.56581055 76.92382812 275.20581055 C76.26382813 275.20581055 75.60382813 275.20581055 74.92382812 275.20581055 C74.58351563 273.87549805 74.58351563 273.87549805 74.23632812 272.51831055 C72.73992966 268.74168585 70.99891076 266.81963079 67.92382812 264.20581055 C67.26382813 264.20581055 66.60382813 264.20581055 65.92382812 264.20581055 C65.92382812 263.54581055 65.92382812 262.88581055 65.92382812 262.20581055 C65.26382813 262.20581055 64.60382813 262.20581055 63.92382812 262.20581055 C63.92382812 261.54581055 63.92382812 260.88581055 63.92382812 260.20581055 C60.47180979 256.90290862 60.47180979 256.90290862 55.92382812 256.20581055 C55.59382812 255.21581055 55.26382813 254.22581055 54.92382812 253.20581055 C53.93382812 252.87581055 52.94382812 252.54581055 51.92382812 252.20581055 C51.59382812 251.54581055 51.26382813 250.88581055 50.92382812 250.20581055 C49.76882813 249.87581055 48.61382813 249.54581055 47.42382812 249.20581055 C46.26882813 248.87581055 45.11382813 248.54581055 43.92382812 248.20581055 C43.59382812 247.54581055 43.26382813 246.88581055 42.92382812 246.20581055 C42.26382813 246.53581055 41.60382813 246.86581055 40.92382812 247.20581055 C40.42882812 246.21581055 40.42882812 246.21581055 39.92382812 245.20581055 C29.65829307 239.1830382 17.5911818 237.6607303 5.92382812 237.20581055 C4.73789062 237.14135742 3.55195312 237.0769043 2.33007812 237.01049805 C-27.01345198 236.08580697 -51.25243823 251.97403258 -70.07617188 273.20581055 Z M-177.63867188 249.64331055 C-180.28027276 250.07557251 -182.85431831 250.38917437 -185.51367188 250.64331055 C-194.76480653 251.66093536 -204.30843811 255.02732137 -212.07617188 260.20581055 C-213.04554688 260.84518555 -214.01492188 261.48456055 -215.01367188 262.14331055 C-216.02429688 262.82393555 -217.03492188 263.50456055 -218.07617188 264.20581055 C-218.98367188 264.74206055 -219.89117187 265.27831055 -220.82617188 265.83081055 C-227.38911123 270.20030067 -233.23565548 276.35163114 -237.07617188 283.20581055 C-237.54796875 283.92639648 -238.01976562 284.64698242 -238.50585938 285.3894043 C-249.6814153 302.8172307 -252.2099052 322.84185988 -248.78710938 343.0065918 C-247.62947214 348.21595935 -245.9313085 353.20774828 -244.07617188 358.20581055 C-243.41617188 358.20581055 -242.75617188 358.20581055 -242.07617188 358.20581055 C-241.95242188 358.94831055 -241.82867187 359.69081055 -241.70117188 360.45581055 C-241.12130486 363.00722539 -240.33908448 364.93256785 -239.07617188 367.20581055 C-238.41617188 367.20581055 -237.75617188 367.20581055 -237.07617188 367.20581055 C-236.99367188 367.74206055 -236.91117188 368.27831055 -236.82617188 368.83081055 C-235.80035917 372.07921746 -234.11053293 374.49332913 -232.07617188 377.20581055 C-231.41617188 377.20581055 -230.75617188 377.20581055 -230.07617188 377.20581055 C-230.07617188 377.86581055 -230.07617188 378.52581055 -230.07617188 379.20581055 C-229.41617188 379.20581055 -228.75617188 379.20581055 -228.07617188 379.20581055 C-227.74617188 380.19581055 -227.41617188 381.18581055 -227.07617188 382.20581055 C-226.41617188 382.20581055 -225.75617188 382.20581055 -225.07617188 382.20581055 C-225.07617188 382.86581055 -225.07617188 383.52581055 -225.07617188 384.20581055 C-224.41617188 384.20581055 -223.75617188 384.20581055 -223.07617188 384.20581055 C-223.07617188 384.86581055 -223.07617188 385.52581055 -223.07617188 386.20581055 C-222.43679688 386.49456055 -221.79742187 386.78331055 -221.13867188 387.08081055 C-219.07617188 388.20581055 -219.07617188 388.20581055 -218.07617188 390.20581055 C-217.25117188 390.37081055 -216.42617188 390.53581055 -215.57617188 390.70581055 C-214.75117188 390.87081055 -213.92617188 391.03581055 -213.07617188 391.20581055 C-212.74617188 391.86581055 -212.41617188 392.52581055 -212.07617188 393.20581055 C-208.84901965 395.07904259 -205.45156077 396.61827601 -202.07617188 398.20581055 C-201.41359375 398.52163086 -200.75101563 398.83745117 -200.06835938 399.1628418 C-196.39584559 400.83441197 -193.04350918 401.59806893 -189.07617188 402.20581055 C-188.06039062 402.38241211 -187.04460937 402.55901367 -185.99804688 402.7409668 C-170.78335161 405.27050357 -158.86891215 403.01837247 -144.07617188 399.20581055 C-145.65373393 393.48117248 -147.42879639 388.05475062 -150.01367188 382.7019043 C-153.01411161 375.65307712 -154.81562697 368.47329048 -156.20117188 360.95581055 C-156.45882324 359.5635022 -156.45882324 359.5635022 -156.72167969 358.14306641 C-157.9762279 351.15718168 -158.88757121 344.30976881 -159.07617188 337.20581055 C-159.10195313 336.4375293 -159.12773437 335.66924805 -159.15429688 334.87768555 C-159.91174204 309.8819951 -156.48722457 285.39777747 -146.22363281 262.45849609 C-145.45695595 260.72926527 -144.75961248 258.9695967 -144.07617188 257.20581055 C-145.68351406 253.99112617 -148.4452264 253.4275622 -151.69726562 252.15893555 C-159.51783676 249.95290161 -169.59604093 248.27017843 -177.63867188 249.64331055 Z M169.11132812 249.95581055 C168.41644287 250.04797852 167.72155762 250.14014648 167.00561523 250.23510742 C161.54785252 251.00981478 155.97547095 251.91481607 150.92382812 254.20581055 C150.59382813 254.86581055 150.26382812 255.52581055 149.92382812 256.20581055 C150.72481397 258.49082761 150.72481397 258.49082761 151.98632812 261.14331055 C156.90611399 272.53577559 161.22732821 284.87911436 162.92382812 297.20581055 C163.106875 298.46780273 163.28992188 299.72979492 163.47851562 301.0300293 C167.74324987 332.86785533 163.36157434 362.58962201 151.60058594 392.32495117 C150.90270469 394.26451724 150.39040345 396.19920259 149.92382812 398.20581055 C161.86033479 404.17406388 177.86142187 405.53664884 190.92382812 403.20581055 C191.63796875 403.08206055 192.35210938 402.95831055 193.08789062 402.83081055 C201.94012596 401.07913147 210.28092891 398.00135515 217.92382812 393.20581055 C218.91382813 392.58706055 219.90382813 391.96831055 220.92382812 391.33081055 C230.28250889 384.701745 239.82482177 376.59993889 244.92382812 366.20581055 C245.56320312 365.19518555 246.20257812 364.18456055 246.86132812 363.14331055 C256.34795524 346.41984931 258.52579636 326.29536008 253.63720703 307.87084961 C252.11245484 302.49078624 250.22586541 297.29968029 247.92382812 292.20581055 C247.26382813 292.20581055 246.60382813 292.20581055 245.92382812 292.20581055 C245.84132813 291.50456055 245.75882813 290.80331055 245.67382812 290.08081055 C244.74089168 286.50455417 243.06782322 284.20740368 240.92382812 281.20581055 C240.22257813 280.09206055 239.52132812 278.97831055 238.79882812 277.83081055 C238.18007813 276.96456055 237.56132813 276.09831055 236.92382812 275.20581055 C236.26382813 275.20581055 235.60382813 275.20581055 234.92382812 275.20581055 C234.42882812 273.72081055 234.42882812 273.72081055 233.92382812 272.20581055 C233.26382813 272.20581055 232.60382813 272.20581055 231.92382812 272.20581055 C231.92382812 271.54581055 231.92382812 270.88581055 231.92382812 270.20581055 C231.26382813 270.20581055 230.60382813 270.20581055 229.92382812 270.20581055 C229.92382812 269.54581055 229.92382812 268.88581055 229.92382812 268.20581055 C229.28445313 267.91706055 228.64507813 267.62831055 227.98632812 267.33081055 C225.92382812 266.20581055 225.92382812 266.20581055 224.92382812 264.20581055 C222.39649577 263.55025936 222.39649577 263.55025936 219.92382812 263.20581055 C219.42882812 261.72081055 219.42882812 261.72081055 218.92382812 260.20581055 C217.00853699 259.12898253 217.00853699 259.12898253 214.61132812 258.33081055 C211.7012837 257.26021182 208.86354861 256.17788213 206.04882812 254.8737793 C199.61388645 251.90446445 194.1181903 250.59800591 187.02929688 250.34643555 C183.92382812 250.20581055 183.92382812 250.20581055 180.52539062 249.64331055 C176.58905295 249.16514371 173.00982209 249.41515385 169.11132812 249.95581055 Z M69.79882812 475.08081055 C66.27584143 477.12156503 62.87830413 478.18310124 58.92382812 479.20581055 C57.4828651 479.6744602 56.04551781 480.15432496 54.61132812 480.64331055 C43.99820748 484.20500188 33.63486662 487.02550239 22.44335938 487.9597168 C19.84032661 488.18227558 19.84032661 488.18227558 16.95898438 488.72143555 C11.19629949 489.56132531 5.35879282 489.39015981 -0.45117188 489.39331055 C-1.63195312 489.40555664 -2.81273437 489.41780273 -4.02929688 489.43041992 C-10.69695094 489.44155743 -16.64486386 488.92680577 -23.07617188 487.20581055 C-24.92787763 486.85906721 -26.78173229 486.52333304 -28.63867188 486.20581055 C-41.10469049 483.96434109 -53.09003689 480.32949959 -64.61523438 475.0612793 C-67.16204955 473.89544098 -67.16204955 473.89544098 -70.07617188 475.20581055 C-71.07434809 477.29364343 -71.07434809 477.29364343 -71.70117188 479.83081055 C-71.9409375 480.66870117 -72.18070313 481.5065918 -72.42773438 482.36987305 C-73.9733078 489.12942911 -74.25874375 495.6814411 -74.26367188 502.58081055 C-74.27591797 503.47541992 -74.28816406 504.3700293 -74.30078125 505.29174805 C-74.3296674 518.54086042 -70.24957639 532.0471813 -63.07617188 543.20581055 C-62.41617187 543.20581055 -61.75617188 543.20581055 -61.07617188 543.20581055 C-61.07617188 544.52581055 -61.07617188 545.84581055 -61.07617188 547.20581055 C-60.08617187 547.20581055 -59.09617187 547.20581055 -58.07617188 547.20581055 C-57.41617187 549.18581055 -56.75617188 551.16581055 -56.07617188 553.20581055 C-55.41617187 553.20581055 -54.75617188 553.20581055 -54.07617188 553.20581055 C-53.74617188 554.19581055 -53.41617187 555.18581055 -53.07617188 556.20581055 C-52.41617187 556.20581055 -51.75617188 556.20581055 -51.07617188 556.20581055 C-51.07617188 556.86581055 -51.07617188 557.52581055 -51.07617188 558.20581055 C-50.41617187 558.20581055 -49.75617188 558.20581055 -49.07617188 558.20581055 C-49.07617188 558.86581055 -49.07617188 559.52581055 -49.07617188 560.20581055 C-48.43679688 560.30893555 -47.79742187 560.41206055 -47.13867188 560.51831055 C-46.45804687 560.74518555 -45.77742188 560.97206055 -45.07617188 561.20581055 C-44.74617188 562.19581055 -44.41617187 563.18581055 -44.07617188 564.20581055 C-43.08617187 564.20581055 -42.09617187 564.20581055 -41.07617188 564.20581055 C-41.07617188 564.86581055 -41.07617188 565.52581055 -41.07617188 566.20581055 C-34.23800328 571.08182423 -27.17291797 574.20986849 -19.07617188 576.20581055 C-17.81353516 576.6215332 -17.81353516 576.6215332 -16.52539062 577.0456543 C1.80421141 582.67157175 21.53690539 579.54889591 38.36523438 570.9597168 C39.06519531 570.56655273 39.76515625 570.17338867 40.48632812 569.76831055 C41.18886719 569.37772461 41.89140625 568.98713867 42.61523438 568.5847168 C48.69708352 564.95207255 53.57372109 560.89319401 58.54882812 555.89331055 C59.20367188 555.25458008 59.85851562 554.61584961 60.53320312 553.95776367 C64.5387626 549.95625841 67.32328286 546.23088164 69.92382812 541.20581055 C70.61584554 540.05877246 71.3098774 538.91294742 72.00585938 537.76831055 C74.11546438 534.07108594 75.39981213 530.27276455 76.61132812 526.20581055 C76.82337891 525.53291992 77.03542969 524.8600293 77.25390625 524.16674805 C82.0388383 508.52892596 81.73900554 489.75857284 74.79101562 474.76049805 C74.50484375 474.24745117 74.21867188 473.7344043 73.92382812 473.20581055 C72.45935279 473.12006125 72.45935279 473.12006125 69.79882812 475.08081055 Z " fill="#FFFFFF" transform="translate(537.076171875,212.794189453125)"/>
<path d="" fill="#FFFFFF" transform="translate(0,0)"/>
<path d="" fill="#FFFFFF" transform="translate(0,0)"/>
<path d="" fill="#FFFFFF" transform="translate(0,0)"/>
<path d="" fill="#FFFFFF" transform="translate(0,0)"/>
<path d="" fill="#FFFFFF" transform="translate(0,0)"/>
</svg>
